<svg width="100" height="100" viewBox="0 0 24 24" fill="none" xmlns="http://www.w3.org/2000/svg">
  <path d="M19 17H21V8.282C21 7.57 20.638 6.912 20.043 6.51L16.702 4.134C16.245 3.813 15.683 3.631 15.109 3.62L8.786 3.5C8.209 3.5 7.643 3.654 7.154 3.944L4.303 5.768C3.504 6.266 3 7.138 3 8.07V17H5M18 17H6M6 17C6 18.105 5.105 19 4 19V21C4 21.552 4.448 22 5 22H19C19.552 22 20 21.552 20 21V19C18.895 19 18 18.105 18 17M7 14C7 14.552 6.552 15 6 15C5.448 15 5 14.552 5 14C5 13.448 5.448 13 6 13C6.552 13 7 13.448 7 14ZM19 14C19 14.552 18.552 15 18 15C17.448 15 17 14.552 17 14C17 13.448 17.448 13 18 13C18.552 13 19 13.448 19 14ZM14 9H4.063M20 9H16M7.5 11L4.063 9L6 6M16.5 11L20 9L18 6" stroke="#42B5E8" stroke-width="2" stroke-linecap="round" stroke-linejoin="round"/>
</svg>